<?xml version="1.0" encoding="utf-8"?>
<!-- Generator: Adobe Illustrator 21.1.0, SVG Export Plug-In . SVG Version: 6.00 Build 0)  -->
<svg version="1.1" id="Layer_1" xmlns="http://www.w3.org/2000/svg" xmlns:xlink="http://www.w3.org/1999/xlink" x="0px" y="0px"
	 viewBox="0 0 100 100" style="enable-background:new 0 0 100 100;" xml:space="preserve">
<style type="text/css">
	.st0{fill:#FFFFFF;}
	.st1{fill:#007FAA;}
</style>
<title>Asset 7</title>
<g>
	<path class="st0" d="M50,99C23,99,1,77,1,50S23,1,50,1c27,0,49,22,49,49S77,99,50,99z"/>
	<path class="st1" d="M50,2c26.5,0,48,21.5,48,48S76.5,98,50,98S2,76.5,2,50S23.5,2,50,2 M50,0C22.4,0,0,22.4,0,50s22.4,50,50,50
		s50-22.4,50-50S77.6,0,50,0L50,0z"/>
</g>
<g id="Layer_2">
	<g id="Layer_1-2">
		<path class="st1" d="M76.4,75.8H23.6c-1.4,0-2.6-1.2-2.6-2.6c0,0,0,0,0,0V31.1c0-1.4,1.2-2.6,2.6-2.6h52.9c1.4,0,2.6,1.2,2.6,2.6
			c0,0,0,0,0,0v42.1C79,74.6,77.9,75.8,76.4,75.8L76.4,75.8L76.4,75.8z M26.1,70.6h47.8V33.7H26.1L26.1,70.6L26.1,70.6z"/>
		<path class="st1" d="M66.6,38c-1.4,0-2.6-1.2-2.6-2.6l0,0v-8.6c0-1.4,1.2-2.6,2.6-2.6c1.4,0,2.6,1.2,2.6,2.6v8.6
			C69.1,36.8,68,38,66.6,38L66.6,38z"/>
		<path class="st1" d="M33.7,38c-1.4,0-2.6-1.2-2.6-2.6v-8.6c0-1.4,1.2-2.6,2.6-2.6c1.4,0,2.6,1.2,2.6,2.6v8.6
			C36.3,36.8,35.1,38,33.7,38z"/>
		<path class="st1" d="M76.3,46.3H23.9c-0.7,0-1.3-0.6-1.3-1.3c0-0.7,0.6-1.3,1.3-1.3h52.4c0.7,0,1.3,0.6,1.3,1.3
			C77.6,45.7,77,46.3,76.3,46.3z"/>
		<polygon class="st1" points="35.6,51.5 30.6,51.5 30.6,56.5 35.6,56.5 35.6,51.5 		"/>
		<polygon class="st1" points="44.3,51.5 39.3,51.5 39.3,56.5 44.3,56.5 44.3,51.5 		"/>
		<polygon class="st1" points="52.9,51.5 47.9,51.5 47.9,56.5 52.9,56.5 52.9,51.5 		"/>
		<polygon class="st1" points="61.6,51.5 56.6,51.5 56.6,56.5 61.6,56.5 61.6,51.5 		"/>
		<polygon class="st1" points="70.2,51.5 65.2,51.5 65.2,56.5 70.2,56.5 70.2,51.5 		"/>
		<polygon class="st1" points="35.6,59.6 30.6,59.6 30.6,64.6 35.6,64.6 35.6,59.6 		"/>
		<polygon class="st1" points="44.3,59.6 39.3,59.6 39.3,64.6 44.3,64.6 44.3,59.6 		"/>
		<polygon class="st1" points="52.9,59.6 47.9,59.6 47.9,64.6 52.9,64.6 52.9,59.6 		"/>
		<polygon class="st1" points="61.6,59.6 56.6,59.6 56.6,64.6 61.6,64.6 61.6,59.6 		"/>
		<polygon class="st1" points="70.2,59.6 65.2,59.6 65.2,64.6 70.2,64.6 70.2,59.6 		"/>
	</g>
</g>
</svg>
