<?xml version="1.0" encoding="utf-8"?>
<!-- Generator: Adobe Illustrator 21.1.0, SVG Export Plug-In . SVG Version: 6.00 Build 0)  -->
<svg version="1.1" id="Layer_1" xmlns="http://www.w3.org/2000/svg" xmlns:xlink="http://www.w3.org/1999/xlink" x="0px" y="0px"
	 viewBox="0 0 100 100" style="enable-background:new 0 0 100 100;" xml:space="preserve">
<style type="text/css">
	.st0{fill:#FFFFFF;}
	.st1{fill:#007FAA;}
</style>
<title>Asset 6</title>
<g>
	<path class="st0" d="M50,99C23,99,1,77,1,50S23,1,50,1s49,22,49,49S77,99,50,99z"/>
	<path class="st1" d="M50,2c26.5,0,48,21.5,48,48S76.5,98,50,98S2,76.5,2,50S23.5,2,50,2 M50,0C22.4,0,0,22.4,0,50s22.4,50,50,50
		s50-22.4,50-50S77.6,0,50,0L50,0z"/>
</g>
<g id="Layer_2">
	<g id="Layer_1-2">
		<path class="st1" d="M69.1,83.1c-12.7,0-25.8-5.9-36-16l-0.2-0.2l0,0c-10.6-10.7-16.4-24-16.1-37v-1l0.6-0.8
			c0.9-1.1,1.8-2.1,2.8-3.1c3.4-3.4,7.5-6.1,12-7.9c0.6-0.2,1.3-0.3,1.9-0.3c1.5,0,5,0.8,5.9,3.2c1.6,4.3,3.5,10,5,15.3
			c0.4,1.5,0,5.1-2.1,6.5l-5,3.2c0.1,0.6,0.3,1.2,0.7,1.7c2.1,2.8,4.3,5.4,6.7,7.9c2.4,2.4,5.1,4.6,7.8,6.7c0.5,0.4,1,0.6,1.6,0.6
			l1.7-2.4l1.6-2.5c1.4-2.1,4.9-2.2,5.3-2.2c0.4,0,0.7,0,1.1,0.1c5.4,1.1,10.7,2.8,15.7,5.1c2.3,1,3.7,5.1,2.7,7.7
			c-1.7,4.5-4.4,8.6-7.9,12.1c-1,1-2,1.9-3.1,2.8l-0.7,0.6L69.1,83.1L69.1,83.1z M22.6,31c0,11,5.4,22.9,14.4,31.9l0.3,0.3
			c9,9,20.6,14.2,31.8,14.3c0.7-0.6,1.3-1.1,1.9-1.7c2.9-2.9,5.1-6.3,6.6-10.1c0,0-0.1-0.4-0.3-0.6c-4.5-2-9.2-3.5-14.1-4.5
			c-0.2,0-0.4,0.1-0.7,0.1l-2.8,4.6c-1.8,2.9-6.5,3.4-9.9,0.9c-3-2.2-5.8-4.6-8.5-7.2c-2.6-2.7-5.1-5.5-7.3-8.6
			c-1.4-1.8-1.9-4-1.6-6.2c0.3-1.5,1.2-2.9,2.5-3.7l4.5-3c0.1-0.3,0.1-0.5,0.1-0.8c-1.2-4.7-3.1-9.8-4.5-13.9
			c-0.2-0.1-0.5-0.1-0.8-0.2c-3.7,1.5-7.1,3.7-9.9,6.5C23.7,29.7,23.2,30.3,22.6,31z"/>
	</g>
</g>
</svg>
