<?xml version="1.0" encoding="utf-8"?>
<!-- Generator: Adobe Illustrator 21.1.0, SVG Export Plug-In . SVG Version: 6.00 Build 0)  -->
<svg version="1.1" id="Layer_1" xmlns="http://www.w3.org/2000/svg" xmlns:xlink="http://www.w3.org/1999/xlink" x="0px" y="0px"
	 viewBox="0 0 100 100" style="enable-background:new 0 0 100 100;" xml:space="preserve">
<style type="text/css">
	.st0{fill:#FFFFFF;}
	.st1{fill:#007FAA;}
</style>
<g>
	<path class="st0" d="M50,99C23,99,1,77,1,50S23,1,50,1s49,22,49,49S77,99,50,99z"/>
	<path class="st1" d="M50,2c26.5,0,48,21.5,48,48S76.5,98,50,98S2,76.5,2,50S23.5,2,50,2 M50,0C22.4,0,0,22.4,0,50s22.4,50,50,50
		s50-22.4,50-50S77.6,0,50,0L50,0z"/>
</g>
<title>Asset 5</title>
<g id="Layer_2">
	<g id="Layer_1-2">
		<path class="st1" d="M50,82.5c-0.6,0-1.2-0.2-1.7-0.6C45.6,79.6,22.6,59.5,22.6,45c0.3-15.1,12.8-27.2,27.9-26.9
			C65.2,18.4,77.2,30.3,77.4,45c0,14.5-23.1,34.5-25.7,36.8C51.2,82.2,50.6,82.5,50,82.5z M50,23C37.8,23,27.9,32.8,27.9,45
			c0,9.4,14.6,24.5,22.1,31.2c7.5-6.7,22.1-21.8,22.1-31.2C72,32.8,62.2,23,50,23z"/>
		<path class="st1" d="M50,58.4c-7.4,0-13.4-6-13.4-13.4s6-13.4,13.4-13.4c7.4,0,13.4,6,13.4,13.4c0,0,0,0,0,0
			C63.4,52.4,57.4,58.4,50,58.4z M50,37c-4.4,0-8,3.5-8.1,8s3.5,8,8,8.1c4.4,0,8-3.5,8.1-8c0,0,0,0,0,0C58,40.6,54.4,37,50,37L50,37
			z"/>
	</g>
</g>
</svg>
