<?xml version="1.0" encoding="utf-8"?>
<!-- Generator: Adobe Illustrator 24.1.1, SVG Export Plug-In . SVG Version: 6.00 Build 0)  -->
<svg version="1.1" id="Layer_1" xmlns="http://www.w3.org/2000/svg" xmlns:xlink="http://www.w3.org/1999/xlink" x="0px" y="0px"
	 viewBox="0 0 576 216" style="enable-background:new 0 0 576 216;" xml:space="preserve">
<style type="text/css">
	.st0{fill:url(#SVGID_1_);}
	.st1{fill:#FFFFFF;}
	.st2{fill:#005987;}
	.st3{fill:#22AAE2;}
	.st4{fill:#231F20;}
</style>
<g>
	<g>
		<linearGradient id="SVGID_1_" gradientUnits="userSpaceOnUse" x1="287.2832" y1="150.1252" x2="287.2832" y2="69.3833">
			<stop  offset="0.2827" style="stop-color:#21A9E1"/>
			<stop  offset="0.6474" style="stop-color:#1182B5"/>
			<stop  offset="1" style="stop-color:#005986"/>
		</linearGradient>
		<circle class="st0" cx="287.28" cy="109.75" r="40.37"/>
		<path class="st1" d="M306.71,89.63c-5.38-5.38-12.38-8.15-19.43-8.32v28.44h27.76C315.05,102.47,312.27,95.19,306.71,89.63z"/>
		<g>
			<path class="st2" d="M67.79,158.25c0,10.99-8.86,19.47-20.4,19.47S27,169.24,27,158.25c0-11.05,8.86-19.36,20.4-19.36
				S67.79,147.26,67.79,158.25z M34.49,158.25c0,7.22,5.96,12.91,13.01,12.91c7,0,12.8-5.69,12.8-12.91c0-7.22-5.8-12.8-12.8-12.8
				C40.39,145.46,34.49,151.04,34.49,158.25z"/>
			<path class="st2" d="M105.07,152.29c0,8.75-5.52,13.84-15.15,13.84h-8.37v11.26h-7.33v-38.28h15.69
				C99.54,139.11,105.07,143.87,105.07,152.29z M98.12,152.51c0-4.7-3.12-7-8.59-7h-7.98v14.16h7.98
				C95.01,159.68,98.12,157.32,98.12,152.51z"/>
			<path class="st2" d="M138.08,139.11v6.51h-11.92v31.77h-7.38v-31.77h-11.92v-6.51H138.08z"/>
			<path class="st2" d="M150.6,139.11v38.28h-7.33v-38.28H150.6z"/>
			<path class="st2" d="M177.33,145.4c-7.22,0-12.85,5.58-12.85,12.69c0,7.16,5.63,12.74,12.85,12.74c3.66,0,7.55-1.7,10.39-4.48
				l4.32,4.81c-3.94,3.99-9.57,6.56-15.09,6.56c-11.26,0-19.96-8.48-19.96-19.52c0-10.94,8.8-19.3,20.23-19.3
				c5.47,0,11.05,2.35,14.76,6.13l-4.26,5.36C184.99,147.32,181.1,145.4,177.33,145.4z"/>
			<path class="st2" d="M222.65,169.3h-18.7l-3.39,8.09h-7.6l16.79-38.28h7.6l16.57,38.28h-7.87L222.65,169.3z M220.03,163.01
				l-6.67-16.08l-6.78,16.08H220.03z"/>
			<path class="st2" d="M245.88,139.11v31.66h16.51v6.62h-23.84v-38.28H245.88z"/>
			<path class="st3" d="M340.29,149.23c-4.59,0-7.93,3.66-7.93,8.75c0,5.14,3.34,8.86,7.93,8.86c2.73,0,6.18-1.7,8.69-4.38
				l7.33,7.82c-4.26,4.65-10.77,7.66-16.68,7.66c-11.76,0-20.29-8.37-20.29-19.8c0-11.26,8.75-19.47,20.78-19.47
				c5.85,0,12.25,2.73,16.18,7l-7.33,8.69C346.69,151.25,343.24,149.23,340.29,149.23z"/>
			<path class="st3" d="M390.2,177.39l-4.59-9.95h-4.76v9.95h-12.69v-38.33h18.54c10.39,0,16.35,4.98,16.35,13.73
				c0,5.58-2.13,9.73-6.07,12.14l7.55,12.47H390.2z M380.85,157.82h5.85c2.74,0,4.32-1.69,4.32-4.65c0-2.84-1.58-4.48-4.32-4.48
				h-5.85V157.82z"/>
			<path class="st3" d="M457.28,158.2c0,11.37-8.86,19.74-21.05,19.74c-12.2,0-21.05-8.31-21.05-19.74
				c0-11.37,8.86-19.52,21.05-19.52C448.42,138.68,457.28,146.88,457.28,158.2z M428.19,158.25c0,5.25,3.83,9.13,8.2,9.13
				s7.87-3.88,7.87-9.13s-3.5-9.02-7.87-9.02C431.96,149.23,428.19,153,428.19,158.25z"/>
			<path class="st3" d="M485.64,148.19c-1.42,0-2.35,0.44-2.35,1.59c0,4.81,19.85,1.8,19.85,15.69c0,8.53-7.49,12.3-16.13,12.3
				c-6.67,0-14.11-2.24-19.19-6.13l4.7-9.51c3.94,3.28,10.72,5.96,14.6,5.96c1.86,0,3.06-0.6,3.06-1.97
				c0-4.98-19.85-1.7-19.85-15.15c0-7.66,6.45-12.47,16.4-12.47c6.07,0,12.36,1.8,16.68,4.54l-4.59,9.62
				C494.94,150.54,488.98,148.19,485.64,148.19z"/>
			<path class="st3" d="M531.23,148.19c-1.42,0-2.35,0.44-2.35,1.59c0,4.81,19.85,1.8,19.85,15.69c0,8.53-7.49,12.3-16.13,12.3
				c-6.67,0-14.11-2.24-19.19-6.13l4.7-9.51c3.94,3.28,10.72,5.96,14.6,5.96c1.86,0,3.06-0.6,3.06-1.97
				c0-4.98-19.85-1.7-19.85-15.15c0-7.66,6.45-12.47,16.4-12.47c6.07,0,12.36,1.8,16.68,4.54l-4.59,9.62
				C540.53,150.54,534.57,148.19,531.23,148.19z"/>
		</g>
		<path class="st4" d="M349.18,109.75c-10.46-2.27-20.92-3.45-31.37-4.25c-4.89-0.4-9.78-0.68-14.68-0.87
			c-1.63-5.03-5.58-9.01-10.6-10.68c-0.16-9.9-0.48-19.79-1.06-29.69c-0.79-14.58-1.96-29.16-4.19-43.73
			c-2.23,14.58-3.39,29.16-4.19,43.73c-0.58,9.9-0.9,19.79-1.06,29.69c-5,1.66-8.94,5.62-10.58,10.62
			c-5.47,0.19-10.94,0.49-16.41,0.94c-10.46,0.8-20.92,1.98-31.37,4.23c10.46,2.25,20.92,3.43,31.37,4.23
			c5.47,0.45,10.94,0.75,16.41,0.94c1.64,5.03,5.61,9,10.63,10.64c0.18,8.72,0.48,17.44,0.99,26.16c0.79,14.58,1.96,29.16,4.2,43.73
			c2.24-14.58,3.41-29.16,4.2-43.73c0.51-8.72,0.81-17.44,0.99-26.16c5.04-1.65,9.02-5.65,10.65-10.7
			c4.89-0.19,9.78-0.47,14.68-0.87C328.26,113.2,338.72,112.02,349.18,109.75z"/>
		<g>
			<path class="st4" d="M184.99,108.12c0.1-0.29,0.22-0.58,0.33-0.87c-8.76,0.29-17.51,0.6-26.27,0.99
				c-42.2,1.75-84.4,4.32-126.6,9.16h153.12C184.2,114.58,183.89,111.26,184.99,108.12z"/>
			<g>
				<path class="st4" d="M276.36,41.74c-16.74,2.35-32.78,8.73-46.27,18.42c-17.64,12.56-31,30.47-38.05,50.41
					c-0.8,2.3,0.28,4.9,2.55,5.9c2.39,1.05,5.18-0.03,6.23-2.42c7.8-17.6,21-32.47,37.06-42.12c11.41-6.91,24.23-11.04,37.23-12.3
					C275.47,53.2,275.88,47.29,276.36,41.74z"/>
				<path class="st4" d="M543.58,117.4c-42.21-4.87-84.41-7.45-126.62-9.19c-8.69-0.39-17.37-0.7-26.06-0.99
					c-7.99-18.23-20.71-34.15-36.53-45.68c-16.43-12.1-36.25-19.26-56.24-20.57c0.53,6.07,0.98,12.58,1.37,19.73
					c14.99,2.78,29.04,9.5,40.36,19.28c11.76,10.08,20.58,23.25,25.53,37.58L543.58,117.4z"/>
			</g>
		</g>
	</g>
</g>
</svg>
