<?xml version="1.0" encoding="utf-8"?>
<!-- Generator: Adobe Illustrator 21.1.0, SVG Export Plug-In . SVG Version: 6.00 Build 0)  -->
<svg version="1.1" id="Layer_1" xmlns="http://www.w3.org/2000/svg" xmlns:xlink="http://www.w3.org/1999/xlink" x="0px" y="0px"
	 viewBox="0 0 127 127" style="enable-background:new 0 0 127 127;" xml:space="preserve">
<style type="text/css">
	.st0{clip-path:url(#SVGID_2_);}
	.st1{fill:#FFFFFF;}
	.st2{opacity:0.5;fill:#CCCCCC;enable-background:new    ;}
	.st3{fill:#394B5E;}
	.st4{opacity:0.19;enable-background:new    ;}
	.st5{opacity:0.17;enable-background:new    ;}
	.st6{fill:#C0D2DE;}
	.st7{fill:#22A7F0;}
	.st8{opacity:0.3;fill:#22A7F0;enable-background:new    ;}
	.st9{opacity:0.62;fill:#C2DAEB;enable-background:new    ;}
	.st10{opacity:0.5;fill:#FFFFFF;enable-background:new    ;}
	.st11{opacity:9.000000e-02;fill:#394B5E;enable-background:new    ;}
	.st12{fill:none;stroke:#007FAA;stroke-width:2;stroke-miterlimit:10;}
</style>
<title>Asset 1</title>
<g>
	<g id="Layer_2">
		<g id="Layer_1-2">
			<g>
				<defs>
					<circle id="SVGID_1_" cx="63.5" cy="63.5" r="62.5"/>
				</defs>
				<clipPath id="SVGID_2_">
					<use xlink:href="#SVGID_1_"  style="overflow:visible;"/>
				</clipPath>
				<g class="st0">
					<rect x="1" y="1" class="st1" width="124.9" height="124.9"/>
					<path class="st2" d="M125.9,65.8v60.1H58L18.3,86.2c-4.7-7.3-4.9-16.5-0.7-24c-2.9-2.4-3.3-6.7-0.9-9.6
						c2.4-2.9,6.7-3.3,9.6-0.9c0.4,0.3,0.7,0.7,1,1.1c2.1-1.1,4.3-1.8,6.6-2.2v-5L28.5,45v-4l4-0.5l1.3-0.2v-6h27.9V30h5.3v4.3h27.4
						l0.6,0.6L125.9,65.8z"/>
					<path class="st3" d="M95.1,34.4v17.3H68.5V60h-8v-8.3H33.9V34.4h27.9V30h5.3v4.3L95.1,34.4z"/>
					<path class="st4" d="M90.4,45c-6.7,0-13.3,2.2-18.6,6.3l-0.4,0.3h23.7V45H90.4z M57.2,51.4C51.8,47.2,45.3,45,38.5,45h-4.7v6.7
						h23.7L57.2,51.4z"/>
					<circle class="st1" cx="64.5" cy="56.3" r="2.7"/>
					<rect x="68.5" y="34.4" class="st5" width="3.3" height="17.3"/>
					<rect x="57.2" y="34.4" class="st5" width="3.3" height="17.3"/>
					<rect x="77.8" y="39.7" class="st6" width="9.3" height="4"/>
					<rect x="41.8" y="39.7" class="st6" width="9.3" height="4"/>
					<polygon class="st7" points="100.4,45 95.1,45.7 95.1,40.4 100.4,41 					"/>
					<polygon class="st8" points="100.4,43.7 96.4,43.7 96.4,40.5 95.1,40.4 95.1,43.7 95.1,45.7 100.4,45 					"/>
					<polygon class="st7" points="33.9,40.4 33.9,45.7 28.5,45 28.5,41 32.5,40.5 					"/>
					<polygon class="st8" points="33.9,40.4 33.9,45.7 28.5,45 28.5,43.7 32.5,43.7 32.5,40.5 					"/>
					<path class="st6" d="M61.1,73.6c0,8.3-4.4,15.9-11.5,20.1c-0.4,0.2-0.8,0.5-1.3,0.7S47.5,94.8,47,95s-0.8,0.3-1.2,0.5
						s-0.9,0.3-1.3,0.4s-1,0.3-1.5,0.4c-1.5,0.3-2.9,0.5-4.4,0.6h-1.3h-0.6c-0.5,0-0.9-0.1-1.4-0.1l-0.4-0.1l-1-0.2
						c-12.7-2.2-21.1-14.3-18.9-26.9c0.5-2.6,1.3-5.1,2.6-7.4c0.2-0.3,0.3-0.6,0.5-0.8c0.3-0.6,0.7-1.1,1.1-1.6
						c0.2-0.3,0.4-0.5,0.6-0.8c1.2-1.5,2.6-2.8,4.2-4l0.8-0.6c0.5-0.4,1.1-0.7,1.7-1c0.3-0.2,0.5-0.3,0.8-0.5
						c2.1-1.1,4.3-1.8,6.6-2.2l1-0.2l0.4-0.1c0.5,0,0.9-0.1,1.4-0.1h0.6h1.3c0.8,0,1.5,0.1,2.2,0.2c0.4,0,0.7,0.1,1.1,0.2
						c0.8,0.1,1.7,0.3,2.5,0.6l0.2,0.1c0.4,0.1,0.8,0.2,1.1,0.4s1,0.4,1.5,0.6l0,0c0.7,0.3,1.3,0.6,1.9,0.9c0.4,0.2,0.9,0.5,1.3,0.8
						C57,58.3,61.1,65.7,61.1,73.6z"/>
					<path class="st9" d="M33.9,96.6c1.3,0.2,2.7,0.3,4,0.3h0.7V50.4h-0.7c-1.3,0-2.7,0.1-4,0.3V96.6z"/>
					<path class="st3" d="M63.8,75.6c0-14-11.3-25.3-25.3-25.3c0,0,0,0,0,0v50.5C52.5,100.9,63.8,89.6,63.8,75.6
						C63.8,75.6,63.8,75.6,63.8,75.6z"/>
					<circle class="st6" cx="54.5" cy="73.6" r="7.3"/>
					<circle class="st3" cx="54.5" cy="73.6" r="4.9"/>
					<path class="st10" d="M52.5,78.1l6.5-6.4c0.3,0.6,0.4,1.2,0.4,1.9l-4.9,4.9C53.8,78.5,53.1,78.3,52.5,78.1z M51,77l6.9-6.9
						c-0.9-0.8-2-1.3-3.2-1.4l-5,5C49.7,75,50.2,76.1,51,77z"/>
					<circle class="st6" cx="45.2" cy="92.2" r="4.7"/>
					<circle class="st1" cx="45.2" cy="92.2" r="2"/>
					<path class="st1" d="M45.8,89.6h-1.3v-1.3h1.3V89.6z M43.8,89.9l-0.9-0.9l-0.9,0.9l0.9,0.9L43.8,89.9z M42.5,91.6h-1.3v1.3h1.3
						V91.6z M43.8,94.6l-0.9-0.9l-0.9,0.9l0.9,0.9L43.8,94.6z M45.8,94.9h-1.3v1.3h1.3L45.8,94.9z M48.5,94.6l-0.9-0.9l-0.9,0.9
						l0.9,0.9L48.5,94.6z M49.2,91.6h-1.3v1.3h1.3L49.2,91.6z M48.5,89.9l-0.9-0.9l-0.9,0.9l0.9,0.9L48.5,89.9z"/>
					<path class="st3" d="M28.7,57c0,3.8-3.1,6.8-6.8,6.8s-6.8-3.1-6.8-6.8c0-3.8,3.1-6.8,6.8-6.8c2.1,0,4.1,1,5.4,2.7
						C28.2,54.1,28.7,55.5,28.7,57z"/>
					<circle class="st6" cx="21.9" cy="57" r="2.9"/>
					<path class="st6" d="M22.9,53.1h-2v-1.9h1.9L22.9,53.1z M19.9,53.5l-1.4-1.4l-1.4,1.4l1.4,1.4L19.9,53.5z M18,56h-1.9v2H18V56z
						 M19.8,60.4L18.5,59l-1.4,1.4l1.4,1.4L19.8,60.4z M22.8,60.9h-1.9v2h1.9L22.8,60.9z M26.7,60.4L25.3,59L24,60.4l1.4,1.4
						L26.7,60.4z M27.7,56h-1.9v2h2L27.7,56z M26.7,53.5l-1.4-1.4L24,53.5l1.4,1.4L26.7,53.5z"/>
					<path class="st1" d="M44.7,50.2c-2.9-0.3-5.5,1.9-5.8,4.8c0,0,0,0,0,0c-0.2,1.9-1,3.7-2.2,5.2l-0.2,0.2l-0.2,0.2
						c-1.5,1.2-3.3,2-5.2,2.2c-2.9,0.2-5.1,2.8-4.9,5.7s2.8,5.1,5.7,4.9c0.1,0,0.2,0,0.2,0c0.7-0.1,7.2-0.8,11.8-5.3l0.2-0.2
						l0.2-0.2c4.5-4.5,5.2-11,5.3-11.8C49.8,53,47.6,50.4,44.7,50.2z"/>
					<path class="st11" d="M44.7,50.2c2.9,0.3,5.1,2.9,4.8,5.8c0,0,0,0,0,0c-0.3,2.3-0.9,4.5-1.8,6.6c-3.8,1.7-8.2,0.2-10.2-3.4
						c0.7-1.3,1.2-2.7,1.4-4.2C39.2,52.1,41.7,49.9,44.7,50.2C44.7,50.1,44.7,50.1,44.7,50.2z M26.2,68.7c0.3,2.9,2.9,5.1,5.8,4.8
						c2.3-0.3,4.5-0.9,6.6-1.8c1.7-3.8,0.2-8.2-3.4-10.2c-1.3,0.7-2.7,1.2-4.2,1.4C28.1,63.1,25.9,65.7,26.2,68.7
						C26.2,68.6,26.2,68.6,26.2,68.7z"/>
					<ellipse transform="matrix(0.7071 -0.7071 0.7071 0.7071 -26.0379 47.6042)" class="st6" cx="44.4" cy="55.2" rx="6" ry="6"/>
					<ellipse transform="matrix(0.707 -0.7072 0.7072 0.707 -26.0301 47.6138)" class="st3" cx="44.4" cy="55.2" rx="4" ry="4"/>
					<path class="st10" d="M42.8,58.9l5.3-5.2c0.2,0.5,0.3,1,0.3,1.5l-4,4C43.9,59.2,43.3,59.1,42.8,58.9z M41.6,58l5.6-5.6
						c-0.7-0.7-1.7-1.1-2.7-1.1l-4.1,4.1C40.5,56.3,40.9,57.3,41.6,58z"/>
					<ellipse transform="matrix(0.7071 -0.7071 0.7071 0.7071 -39.2116 42.1505)" class="st3" cx="31.3" cy="68.4" rx="6" ry="6"/>
					
						<ellipse transform="matrix(0.7071 -0.7071 0.7071 0.7071 -39.2045 42.1476)" class="st6" cx="31.3" cy="68.4" rx="3.5" ry="3.5"/>
					<path class="st6" d="M28.3,65.4c-0.3,0.3-0.7,0.3-0.9,0L27,65.1c-0.3-0.3-0.3-0.7,0-0.9c0.3-0.3,0.7-0.3,0.9,0l0.3,0.3
						C28.5,64.7,28.6,65.2,28.3,65.4z M27.1,68.4c0-0.4-0.3-0.7-0.7-0.7h-0.5c-0.4,0-0.7,0.3-0.7,0.7s0.3,0.7,0.7,0.7h0.5
						c0.2,0,0.3-0.1,0.5-0.2C27,68.8,27.1,68.6,27.1,68.4L27.1,68.4z M28.3,71.4c-0.3-0.3-0.7-0.3-0.9,0L27,71.8
						c-0.3,0.3-0.3,0.7,0,0.9c0.3,0.3,0.7,0.3,0.9,0l0,0l0.3-0.3C28.6,72.1,28.6,71.7,28.3,71.4C28.3,71.4,28.3,71.4,28.3,71.4
						L28.3,71.4z M31.9,73.8v-0.5c0-0.4-0.2-0.7-0.6-0.7c-0.4,0-0.7,0.2-0.7,0.6c0,0.1,0,0.1,0,0.2v0.5c0,0.4,0.2,0.7,0.6,0.7
						c0.4,0,0.7-0.2,0.7-0.6C31.9,73.9,31.9,73.9,31.9,73.8z M35.5,71.8l-0.3-0.3c-0.3-0.2-0.7-0.2-0.9,0.1c-0.2,0.2-0.2,0.6,0,0.8
						l0.3,0.3c0.2,0.3,0.6,0.3,0.9,0.1c0.3-0.2,0.3-0.6,0.1-0.9C35.6,71.9,35.6,71.8,35.5,71.8z M37.3,68.5c0-0.4-0.3-0.7-0.7-0.7h0
						h-0.5c-0.4,0-0.7,0.2-0.7,0.6c0,0.4,0.2,0.7,0.6,0.7c0.1,0,0.1,0,0.2,0h0.5c0.2,0,0.3-0.1,0.5-0.2
						C37.2,68.8,37.3,68.6,37.3,68.5L37.3,68.5z M35.5,64.2c-0.3-0.3-0.7-0.3-0.9,0l-0.3,0.3c-0.2,0.3-0.2,0.7,0.1,0.9
						c0.2,0.2,0.6,0.2,0.8,0l0.3-0.3c0.3-0.2,0.3-0.6,0.1-0.9C35.6,64.2,35.6,64.2,35.5,64.2L35.5,64.2z M31.9,63.6v-0.5
						c0-0.4-0.2-0.7-0.6-0.7c-0.4,0-0.7,0.2-0.7,0.6c0,0.1,0,0.1,0,0.2v0.5c0,0.4,0.2,0.7,0.6,0.7s0.7-0.2,0.7-0.6
						C31.9,63.7,31.9,63.7,31.9,63.6z"/>
					<path class="st10" d="M29.9,71.6l4.6-4.6c0.2,0.4,0.3,0.9,0.3,1.4L31.2,72C30.8,71.9,30.3,71.8,29.9,71.6z M28.7,70.8l5-5
						c-0.6-0.6-1.5-1-2.4-1l-3.6,3.7C27.8,69.4,28.1,70.2,28.7,70.8z"/>
					<circle class="st6" cx="91.1" cy="73.6" r="23.3"/>
					<path class="st9" d="M95.1,96.6c-1.3,0.2-2.7,0.3-4,0.3h-0.7V50.4h0.7c1.3,0,2.7,0.1,4,0.3V96.6z"/>
					<path class="st3" d="M65.1,75.6c0-14,11.3-25.3,25.3-25.3l0,0v50.5C76.4,100.9,65.1,89.6,65.1,75.6z"/>
					<circle class="st6" cx="74.4" cy="73.6" r="7.3"/>
					<circle class="st3" cx="74.4" cy="73.6" r="4.9"/>
					<path class="st10" d="M72.5,78.1l6.4-6.4c0.3,0.6,0.4,1.2,0.4,1.9l-4.9,4.9C73.7,78.5,73.1,78.3,72.5,78.1z M70.9,77l6.9-6.9
						c-0.9-0.8-2-1.3-3.2-1.4l-5,5C69.6,75,70.1,76.1,70.9,77z"/>
					<circle class="st6" cx="83.8" cy="92.2" r="4.7"/>
					<circle class="st1" cx="83.8" cy="92.2" r="2"/>
					<path class="st1" d="M83.1,88.2h1.3v1.3h-1.3V88.2z M86.1,90.8l0.9-0.9l-0.9-0.9l-0.9,0.9L86.1,90.8z M86.4,92.9h1.3v-1.3h-1.3
						L86.4,92.9z M86.1,95.5l0.9-0.9l-0.9-0.9l-0.9,0.9L86.1,95.5z M83.1,96.2h1.3v-1.3h-1.3V96.2z M81.4,95.5l0.9-0.9l-0.9-0.9
						l-0.9,0.9L81.4,95.5z M79.8,92.9h1.3v-1.3h-1.3L79.8,92.9z M81.4,90.8l0.9-0.9l-0.9-0.9l-0.9,0.9L81.4,90.8z"/>
					<circle class="st3" cx="107" cy="57" r="6.8"/>
					<circle class="st6" cx="107" cy="57" r="2.9"/>
					<path class="st6" d="M106.1,51.2h1.9v1.9h-1.9V51.2z M110.5,54.9l1.4-1.4l-1.4-1.4l-1.4,1.4L110.5,54.9z M110.9,57.9h1.9V56
						h-1.9V57.9z M110.5,61.8l1.4-1.4l-1.4-1.4l-1.4,1.4L110.5,61.8z M106.1,62.8h1.9v-1.9h-1.9V62.8z M103.6,61.8l1.4-1.4l-1.4-1.4
						l-1.4,1.4L103.6,61.8z M101.2,58h1.9v-2h-1.9V58z M103.6,55l1.4-1.5l-1.4-1.4l-1.4,1.4L103.6,55z"/>
					<path class="st1" d="M84.2,50.2c2.9-0.3,5.5,1.9,5.8,4.8c0,0,0,0,0,0c0.2,1.9,1,3.7,2.2,5.2l0.2,0.2l0.2,0.2
						c1.5,1.2,3.3,2,5.2,2.2c2.9,0.2,5.1,2.8,4.9,5.7c-0.2,2.9-2.8,5.1-5.7,4.9c-0.1,0-0.2,0-0.2,0c-0.7-0.1-7.2-0.8-11.8-5.3
						L85,67.9l-0.2-0.2c-4.5-4.5-5.2-11-5.3-11.8C79.2,53,81.3,50.5,84.2,50.2z"/>
					<path class="st11" d="M90,55c0.2,1.5,0.7,2.9,1.4,4.2c-2,3.6-6.5,5.1-10.2,3.4c-0.9-2.1-1.5-4.3-1.8-6.5
						c-0.3-2.9,1.7-5.6,4.7-5.9c2.9-0.3,5.6,1.7,5.9,4.7C90,54.8,90,54.9,90,55L90,55z M97.9,62.9c-1.5-0.2-2.9-0.7-4.2-1.4
						c-3.6,2-5.1,6.5-3.4,10.2c2.1,0.9,4.3,1.5,6.6,1.8c2.9,0.3,5.6-1.7,5.9-4.7c0.3-2.9-1.7-5.6-4.7-5.9
						C98.1,62.9,98,62.9,97.9,62.9L97.9,62.9z"/>
					<ellipse transform="matrix(0.7072 -0.707 0.707 0.7072 -14.3226 75.9023)" class="st6" cx="84.5" cy="55.2" rx="6" ry="6"/>
					<ellipse transform="matrix(0.7071 -0.7071 0.7071 0.7071 -14.3079 75.912)" class="st3" cx="84.5" cy="55.2" rx="4" ry="4"/>
					<path class="st10" d="M82.9,58.9l5.3-5.2c0.2,0.5,0.3,1,0.3,1.5l-4,4C83.9,59.2,83.4,59.1,82.9,58.9z M81.6,58l5.6-5.6
						c-0.7-0.7-1.7-1.1-2.7-1.1l-4.1,4.1C80.5,56.3,80.9,57.3,81.6,58z"/>
					<ellipse transform="matrix(0.7071 -0.7071 0.7071 0.7071 -19.7645 89.0786)" class="st3" cx="97.6" cy="68.4" rx="6" ry="6"/>
					
						<ellipse transform="matrix(0.7071 -0.7071 0.7071 0.7071 -19.7645 89.0786)" class="st6" cx="97.6" cy="68.4" rx="3.5" ry="3.5"/>
					<path class="st6" d="M100.6,64.5l0.3-0.3c0.3-0.3,0.7-0.3,0.9,0s0.3,0.7,0,0.9l-0.3,0.3c-0.3,0.2-0.7,0.2-0.9-0.1
						C100.4,65.1,100.4,64.7,100.6,64.5z M102,68.9c0.1,0.1,0.3,0.2,0.5,0.2h0.5c0.4,0,0.7-0.3,0.7-0.7s-0.3-0.7-0.7-0.7h-0.5
						c-0.4,0-0.7,0.3-0.7,0.7C101.9,68.6,101.9,68.7,102,68.9L102,68.9z M100.6,72.3l0.3,0.3c0.3,0.2,0.7,0.2,0.9-0.1
						c0.2-0.2,0.2-0.6,0-0.8l-0.3-0.3c-0.3-0.2-0.7-0.2-0.9,0.1C100.4,71.7,100.4,72.1,100.6,72.3z M97.1,74.2
						c0.3,0.3,0.7,0.3,0.9,0c0.1-0.1,0.2-0.3,0.2-0.5v-0.5c0-0.4-0.3-0.7-0.7-0.7s-0.7,0.3-0.7,0.7l0,0v0.5
						C97,73.9,97,74.1,97.1,74.2L97.1,74.2z M93.4,72.7c0.3,0.3,0.7,0.3,0.9,0c0,0,0,0,0,0l0.3-0.3c0.2-0.3,0.2-0.7-0.1-0.9
						c-0.2-0.2-0.6-0.2-0.8,0l-0.3,0.3C93.1,72,93.1,72.4,93.4,72.7C93.4,72.6,93.4,72.6,93.4,72.7z M91.8,68.9
						c0.1,0.1,0.3,0.2,0.5,0.2h0.5c0.4,0,0.6-0.4,0.6-0.7c0-0.3-0.3-0.5-0.6-0.6h-0.5c-0.4,0-0.7,0.3-0.7,0.7
						C91.6,68.6,91.7,68.7,91.8,68.9z M93.4,65.1l0.3,0.3c0.3,0.2,0.7,0.2,0.9-0.1c0.2-0.2,0.2-0.6,0-0.8l-0.3-0.3
						c-0.3-0.3-0.7-0.3-0.9,0S93.1,64.8,93.4,65.1z M97.2,64c0.1,0.1,0.3,0.2,0.5,0.2c0.4,0,0.7-0.3,0.7-0.6c0,0,0,0,0,0V63
						c0-0.4-0.3-0.7-0.7-0.7S97,62.7,97,63l0,0v0.5C97,63.7,97.1,63.9,97.2,64z"/>
					<path class="st10" d="M97.7,71.9l-3.6-3.6c0-0.5,0.1-0.9,0.3-1.4l4.7,4.7C98.6,71.8,98.2,71.9,97.7,71.9z M101.2,68.5l-3.6-3.6
						c-0.9,0-1.7,0.4-2.3,1l5,5C100.8,70.2,101.2,69.4,101.2,68.5z"/>
				</g>
			</g>
			<circle class="st12" cx="63.5" cy="63.5" r="62.5"/>
		</g>
	</g>
</g>
</svg>
