<svg xmlns="http://www.w3.org/2000/svg" xmlns:xlink="http://www.w3.org/1999/xlink" viewBox="0 0 127 127"><defs><style>.cls-1{fill:none;stroke:#007faa;stroke-miterlimit:10;stroke-width:2px;}.cls-2{isolation:isolate;}.cls-3{clip-path:url(#clip-path);}.cls-10,.cls-4{fill:#fff;}.cls-5{fill:#ccc;opacity:0.5;}.cls-5,.cls-9{mix-blend-mode:multiply;}.cls-6{fill:#394b5e;}.cls-7{opacity:0.62;}.cls-8{fill:#dbf0ff;}.cls-9{fill:#c2daeb;}.cls-10{mix-blend-mode:soft-light;}</style><clipPath id="clip-path"><circle class="cls-1" cx="63.5" cy="63.5" r="62.5"/></clipPath></defs><title>Asset 4</title><g class="cls-2"><g id="Layer_2" data-name="Layer 2"><g id="Layer_1-2" data-name="Layer 1"><g class="cls-3"><rect class="cls-4" x="1" y="1" width="125.71" height="125.71"/><path class="cls-5" d="M126.71,79.2v47.51H66.2L29.26,89.77l-7.68-7.68a31.68,31.68,0,0,1-4.41-12.39l0-.3v-6A3.1,3.1,0,0,1,18.43,60l.2-.12L23.78,57l.51-.3h0c1.54-.89,3.08-1.77,4.62-2.67,3.41-2,6.84-4,10.22-6l5.1-3,2.54-1.52,1.27-.75.28-.17.24-.14.23-.14a7.79,7.79,0,0,1,1-.44,7,7,0,0,1,7.94,2,12.35,12.35,0,0,1,2,3.17,23.64,23.64,0,0,1,1.12,3.2h0a2.6,2.6,0,1,1-5,1.45,2.51,2.51,0,0,1-.08-.38,9.36,9.36,0,0,0-1.56-4.41,2.38,2.38,0,0,0-1.24-.89,2.45,2.45,0,0,0-1.53.14,3.45,3.45,0,0,0-.39.18l-.09.05-.08.05-.36.23-1.25.8L46.72,49l-5,3.19q-2.26,1.44-4.52,2.91h0l-5.33,3.47a65.24,65.24,0,0,1,7.06-.39,46.55,46.55,0,0,1,21.16,5.31l.51.3h6.47l.51-.3a46.55,46.55,0,0,1,21.16-5.31,65.24,65.24,0,0,1,7.06.39L90.5,55.09h0Q88.25,53.62,86,52.18L81,49l-2.5-1.6-1.25-.8-.36-.23-.08-.05-.09-.05a3.45,3.45,0,0,0-.39-.18,2.45,2.45,0,0,0-1.53-.14,2.38,2.38,0,0,0-1.24.89A9.36,9.36,0,0,0,72,51.25a2.55,2.55,0,0,1-.09.38,2.6,2.6,0,1,1-5-1.45h0A23,23,0,0,1,68,47a12.22,12.22,0,0,1,2-3.17,7,7,0,0,1,7.94-2,7.79,7.79,0,0,1,1,.44l.23.14.24.14.28.17,1.27.75L83.47,45l5.1,3c3.38,2,6.81,4,10.22,6,1.53.9,3.07,1.78,4.62,2.67h0l.51.3,1.26.71,5.38,5.38.06.06Z"/><path class="cls-6" d="M59,53.4a2.6,2.6,0,0,1-3.22-1.77,2.51,2.51,0,0,1-.08-.38,9.36,9.36,0,0,0-1.56-4.41,2.38,2.38,0,0,0-1.24-.89,2.45,2.45,0,0,0-1.53.14,3.45,3.45,0,0,0-.39.18l-.09.05-.08.05-.36.23-1.25.8L46.72,49l-5,3.19q-2.26,1.44-4.52,2.91h0l-5.33,3.47-.1.07q-2.49,1.61-5,3.26l-1.32.89-3.61,2.41a3.12,3.12,0,0,1-4.32-.86,3,3,0,0,1-.43-1A3.1,3.1,0,0,1,18.43,60l.2-.12L23.78,57l.51-.3h0c1.54-.89,3.08-1.77,4.62-2.67,3.41-2,6.84-4,10.22-6l5.1-3,2.54-1.52,1.27-.75.28-.17.24-.14.23-.14a7.79,7.79,0,0,1,1-.44,7,7,0,0,1,7.94,2,12.35,12.35,0,0,1,2,3.17,23.64,23.64,0,0,1,1.12,3.2h0A2.6,2.6,0,0,1,59,53.4Z"/><path class="cls-7" d="M37.21,55.09l-5.33,3.47-.1.07q-2.49,1.61-5,3.26l-1.32.89-3.61,2.41a3.12,3.12,0,0,1-4.32-.86,3,3,0,0,1-.43-1A3.1,3.1,0,0,1,18.43,60l.2-.12L23.78,57l.51-.3h0A68.67,68.67,0,0,1,37.21,55.09Z"/><path class="cls-6" d="M110.62,63.11a2.63,2.63,0,0,1-.06.27,2.94,2.94,0,0,1-.42.95,3.12,3.12,0,0,1-4.32.86l-.25-.16-3.36-2.25-1.32-.89q-2.46-1.64-5-3.26l-.1-.07L90.5,55.09h0Q88.25,53.62,86,52.18L81,49l-2.5-1.6-1.25-.8-.36-.23-.08-.05-.09-.05a3.45,3.45,0,0,0-.39-.18,2.45,2.45,0,0,0-1.53-.14,2.38,2.38,0,0,0-1.24.89A9.36,9.36,0,0,0,72,51.25a2.55,2.55,0,0,1-.09.38,2.6,2.6,0,1,1-5-1.45h0A23,23,0,0,1,68,47a12.22,12.22,0,0,1,2-3.17,7,7,0,0,1,7.94-2,7.79,7.79,0,0,1,1,.44l.23.14.24.14.28.17,1.27.75L83.47,45l5.1,3c3.38,2,6.81,4,10.22,6,1.53.9,3.07,1.78,4.62,2.67h0l.51.3,1.26.71,3.9,2.21.19.12A3.12,3.12,0,0,1,110.62,63.11Z"/><path class="cls-7" d="M110.62,63.11a2.63,2.63,0,0,1-.06.27,2.94,2.94,0,0,1-.42.95,3.12,3.12,0,0,1-4.32.86l-.25-.16-3.36-2.25-1.32-.89q-2.46-1.64-5-3.26l-.1-.07L90.5,55.09a68.67,68.67,0,0,1,12.91,1.57h0l.51.3,1.26.71,3.9,2.21.19.12A3.12,3.12,0,0,1,110.62,63.11Z"/><path class="cls-8" d="M57.14,65.47l1.14.54-.07,1.25C58,70.68,57,79.19,51.8,84.56c-3.09,3.16-7.21,4.76-12.23,4.76-16,0-19-17.8-19.29-19.84l0-.13V64.2l1.33-.4a61.45,61.45,0,0,1,17.36-2.5A44.66,44.66,0,0,1,57.14,65.47Zm49-1.68a61.48,61.48,0,0,0-17.36-2.5,44.42,44.42,0,0,0-18.2,4.18L69.43,66l.07,1.25c.18,3.41,1.17,11.93,6.41,17.3,3.09,3.16,7.21,4.76,12.23,4.76,16.11,0,19-17.81,19.29-19.84l0-.13V64.2Z"/><path class="cls-9" d="M78.55,84.4a13.45,13.45,0,0,1-1.3-1.15c-4.79-4.9-5.71-12.85-5.88-16.09a42.27,42.27,0,0,1,17.4-4,59.81,59.81,0,0,1,16.82,2.42v1.87a60.58,60.58,0,0,0-14.32-1.74,42.28,42.28,0,0,0-17.4,4C74,72.66,74.8,79.5,78.55,84.4ZM24.62,71.78V68.14a59.79,59.79,0,0,1,16.82-2.42,41.79,41.79,0,0,1,14.8,2.9c.05-.55.09-1,.11-1.44a42.52,42.52,0,0,0-17.4-4,59.79,59.79,0,0,0-16.82,2.42v3.64c.18,1.27,1.6,9.88,7.54,14.79A27.56,27.56,0,0,1,24.62,71.78Z"/><path class="cls-10" d="M100.55,62.43,77.23,85.75a15.59,15.59,0,0,1-1.31-1.2c-.17-.17-.32-.36-.48-.53l22.1-22.1C98.6,62.08,99.61,62.25,100.55,62.43ZM22.87,78,39.54,61.3h-.6c-1,0-2,0-3,.07L21.83,75.5C22.12,76.3,22.47,77.13,22.87,78Zm84.57-8.5,0-.13V64.2l-.81-.24L82.17,88.43a19.26,19.26,0,0,0,6,.89h.18l19-19C107.37,70,107.41,69.66,107.44,69.48ZM72,78.6l17.3-17.3h-.56c-1.05,0-2.08,0-3.08.13L71.07,76A27.05,27.05,0,0,0,72,78.6ZM30.52,86.94l23-23a47.18,47.18,0,0,0-5.44-1.6L26.66,83.76A17.28,17.28,0,0,0,30.52,86.94ZM58,69.9c.13-1,.2-1.95.24-2.64l.06-1.19L35.46,88.89a18.85,18.85,0,0,0,3.13.4Z"/><path class="cls-6" d="M109,61.46a57.18,57.18,0,0,0-13.14-2.89,65.24,65.24,0,0,0-7.06-.39A46.55,46.55,0,0,0,67.6,63.49l-.51.3H60.62l-.51-.3a46.55,46.55,0,0,0-21.16-5.31,65.24,65.24,0,0,0-7.06.39,57.18,57.18,0,0,0-13.14,2.89l-1.6.61v7.32l0,.3a31.68,31.68,0,0,0,4.41,12.39,22.42,22.42,0,0,0,7.68,7.68,20.15,20.15,0,0,0,10.3,2.67c5.91,0,10.78-1.93,14.48-5.72,4.89-5,6.52-12.14,7.06-16.7h5.5c.54,4.56,2.17,11.68,7.06,16.7,3.7,3.79,8.57,5.72,14.48,5.72,15.54,0,21.45-14.87,22.4-22.74l0-6.31V62.07ZM56.24,68.61a34.5,34.5,0,0,1-.52,3.54c-.71,3.6-2.19,8-5.25,11.1a14.36,14.36,0,0,1-10,4.18h-.87a17.16,17.16,0,0,1-2.49-.18,14.65,14.65,0,0,1-5.16-1.71A15.27,15.27,0,0,1,28,82.43a21.26,21.26,0,0,1-3.55-5.49l-.17-.36-.09-.21q-.25-.57-.45-1.12c-.08-.18-.14-.36-.2-.54s-.17-.46-.24-.68q-.2-.57-.35-1.1c0-.15-.09-.29-.12-.43a.37.37,0,0,1,0-.08c0-.08,0-.16-.07-.24-.1-.36-.18-.69-.25-1s-.09-.37-.12-.54l-.07-.33c0-.08,0-.16,0-.23s0-.22-.06-.32,0-.09,0-.13a1.58,1.58,0,0,1,0-.19l0-.23V65.58a58.76,58.76,0,0,1,11.82-2.21c1.19-.11,2.43-.18,3.73-.2h1.27a38.81,38.81,0,0,1,7.54.77A43.5,43.5,0,0,1,52,65.43a41.85,41.85,0,0,1,4.31,1.73c0,.27,0,.57-.06.9Zm48.56,4.24c-1.43,5-5.18,13.34-14.48,14.47a18.72,18.72,0,0,1-6.64-.4,13.53,13.53,0,0,1-5.12-2.49,11.7,11.7,0,0,1-.94-.81l-.37-.36c-.17-.18-.34-.36-.5-.54a18.57,18.57,0,0,1-3.29-5.53,24.27,24.27,0,0,1-.89-2.63,34.79,34.79,0,0,1-1.2-7.38,43.4,43.4,0,0,1,12.21-3.63c1.24-.17,2.53-.29,3.87-.34l1.32,0a60.2,60.2,0,0,1,7.1.43c1.09.13,2.11.29,3.07.45a56.76,56.76,0,0,1,6.21,1.41l.44.13v3.65a27.36,27.36,0,0,1-.78,3.62Z"/></g><circle class="cls-1" cx="63.5" cy="63.5" r="62.5"/></g></g></g></svg>