<?xml version="1.0" encoding="utf-8"?>
<!-- Generator: Adobe Illustrator 21.1.0, SVG Export Plug-In . SVG Version: 6.00 Build 0)  -->
<svg version="1.1" id="Layer_1" xmlns="http://www.w3.org/2000/svg" xmlns:xlink="http://www.w3.org/1999/xlink" x="0px" y="0px"
	 viewBox="0 0 127 127" style="enable-background:new 0 0 127 127;" xml:space="preserve">
<style type="text/css">
	.st0{clip-path:url(#SVGID_2_);}
	.st1{fill:#FFFFFF;}
	.st2{opacity:0.5;fill:#CCCCCC;enable-background:new    ;}
	.st3{fill:#22A7F0;}
	.st4{fill:#DBF0FF;}
	.st5{fill:#F2FAFF;}
	.st6{fill:#FCD1A9;}
	.st7{opacity:0.4;fill:#FCD1A9;enable-background:new    ;}
	.st8{fill:#8A5433;}
	.st9{fill:#22313F;}
	.st10{fill:#E4F1FE;}
	.st11{fill:#D5E0ED;}
	.st12{fill:#858C94;}
	.st13{fill:none;stroke:#007FAA;stroke-width:2;stroke-miterlimit:10;}
</style>
<title>Asset 2</title>
<g>
	<g id="Layer_2">
		<g id="Layer_1-2">
			<g>
				<defs>
					<circle id="SVGID_1_" cx="63.5" cy="63.5" r="62.5"/>
				</defs>
				<clipPath id="SVGID_2_">
					<use xlink:href="#SVGID_1_"  style="overflow:visible;"/>
				</clipPath>
				<g class="st0">
					<rect x="1" y="1" class="st1" width="124.9" height="124.9"/>
					<path class="st2" d="M125.9,69.7v56.2H43.5L26,108.4V91.3c0-8.7,11.9-13.4,17.4-15.1L44,76l0.6-0.2l0.4-0.1l0.8-0.2H46h0.2
						c0.4-0.2,0.8-0.4,1.2-0.6l0.3-0.2l0.2-0.1l0.3-0.2l0,0l0.4-0.3l0,0c0.8-0.6,1.5-1.5,1.8-2.5l0,0l1.8-4c-2.6-3.3-4.6-7-5.8-11
						c-2.2,0.4-4.5-2.3-5.1-6.1c-0.5-2.8,0.1-5.5,1.4-6.8l-0.2-0.6c0,0,0-0.3-0.1-0.8c0-0.1,0-0.2,0-0.4s0-0.4,0-0.7s0-0.6,0-1V40
						c0-0.1,0-0.3,0-0.5c0,0,0-0.1,0-0.1c0-0.1,0-0.3,0-0.4s0-0.1,0-0.2s0-0.1,0-0.2s0-0.2,0-0.2s0-0.1,0-0.2s0-0.4,0-0.6
						s0-0.7,0.1-1.1c0-0.1,0-0.2,0-0.3s0-0.3,0-0.5s0-0.3,0-0.5c0-0.3,0.1-0.7,0.2-1.1l0,0c-0.8-3.6,0.5-7.4,3.4-9.8l0,0
						c0.1-0.2,0.2-0.4,0.4-0.6l0.3-0.5c0.4-0.5,0.8-1,1.3-1.5c0.8-0.9,1.6-1.7,2.6-2.5l0.2-0.2l0,0c3-2.3,7.1-3.7,12.7-3.7
						c3.8-0.1,7.6,0.8,11,2.6l6.3,6.3L125.9,69.7z"/>
					<path class="st3" d="M100.8,91.3v18H26v-18c0-8.7,11.9-13.4,17.4-15.1L44,76l0.6-0.2l0.4-0.1l0.8-0.2H46h0.2
						c0.4-0.2,0.8-0.4,1.2-0.6l0.3-0.2l0.2-0.1l0.3-0.2l0,0l0.4-0.3c0.8-0.6,1.5-1.5,1.8-2.5l0,0c1.7-0.4,3.4-0.6,5.1-0.7
						c2.5-0.2,5.4-0.4,7.8-0.4s5.3,0.2,7.8,0.4c1.7,0.1,3.4,0.3,5.1,0.7l0,0c0.4,1,1.1,1.8,1.9,2.4l0.4,0.3l0,0l0.3,0.2l0.2,0.1
						l0.3,0.2c0.4,0.2,0.8,0.4,1.2,0.6h0.2H81l0.8,0.2l0.4,0.1l0.6,0.2l0.6,0.2C88.9,77.9,100.8,82.6,100.8,91.3z"/>
					<path class="st4" d="M83.4,76.2L82.8,76l-0.6-0.2l-0.4-0.1L81,75.5h-0.2h-0.2c-0.4-0.2-0.8-0.4-1.2-0.6l-0.3-0.2L79,74.6
						l-0.3-0.2l0,0L78.3,74l0,0l-12.8,35.2h35.4v-18C100.8,82.6,88.9,77.9,83.4,76.2z M48.6,74L48.6,74l-0.4,0.3l0,0l-0.3,0.2
						l-0.2,0.1l-0.3,0.2c-0.4,0.2-0.8,0.4-1.2,0.6H46h-0.2l-0.8,0.2l-0.4,0.1L44,76l-0.6,0.2C37.9,77.9,26,82.6,26,91.3v18h35.4
						L48.6,74z"/>
					<path class="st5" d="M83.6,88.4l-0.1-12.2L82.8,76l-0.6-0.2l-0.4-0.1L81,75.5h-0.2h-0.2c-0.4-0.2-0.8-0.4-1.2-0.6l-0.3-0.2
						L79,74.6l-0.3-0.2l0,0L78.3,74l0,0l-12.8,35.2h5.5l8.3-9.3l-1-7.6L83.6,88.4z M48.6,74L48.6,74l-0.4,0.3l0,0l-0.3,0.2l-0.2,0.1
						l-0.3,0.2c-0.4,0.2-0.8,0.4-1.2,0.6H46h-0.2l-0.8,0.2l-0.4,0.1L44,76l-0.6,0.2l-0.1,12.2l5.3,4l-1,7.6l8.3,9.3h5.5L48.6,74z"/>
					<path class="st6" d="M76.4,71.6c0,0,0,0.1,0,0.2c-0.1,5.4-5.9,13.9-12.9,13.9s-12.8-8.5-12.9-13.9c0-0.1,0-0.1,0-0.2l0,0l1.8-4
						l2.5-5.7h17.3l2.6,5.7C74.6,67.5,76.4,71.5,76.4,71.6z"/>
					<path class="st7" d="M76.4,71.6c0,0,0,0.1,0,0.2c-3.6,4.1-8.1,6.7-12.9,6.7s-9.4-2.6-12.9-6.7c0-0.1,0-0.1,0-0.2l0,0l1.8-4
						l2.5-5.7h17.3l2.6,5.7C74.6,67.5,76.4,71.5,76.4,71.6z"/>
					<path class="st6" d="M83.9,42.2c0,0.4-0.1,0.7-0.1,1.1c-0.1,1.1-0.3,2.2-0.5,3.2c-0.1,1-0.5,2-0.9,2.9l0,0
						c-0.1,0.1-0.1,0.1-0.2,0.2C82,50,82,50.5,81.9,51c-0.4,1.9-0.8,3.7-1.4,5.6c-1.2,4-3.2,7.7-5.8,11c-1,1.2-2.1,2.3-3.4,3.3
						c-4.5,3.8-11.1,3.8-15.6,0c-1.2-1-2.4-2.1-3.4-3.3c-2.6-3.3-4.6-7-5.8-11c-0.6-1.8-1.1-3.7-1.5-5.6c-0.1-0.5-0.2-0.9-0.2-1.4
						c-0.1,0-0.2-0.1-0.2-0.2l0,0c-0.5-0.9-0.8-1.9-0.9-2.9c-0.2-1-0.4-2.1-0.5-3.2c0-0.4-0.1-0.8-0.1-1.1c0-0.6-0.1-1.1-0.1-1.6
						c0-1.3,0.1-2.3,0.4-2.3c0.4,0,0.8,0.2,1.1,0.5c0-0.3,0-0.5,0.1-0.8c0.1-0.8,0.2-1.5,0.3-2.2c0.1-0.5,0.2-0.9,0.3-1.4
						c0.8-3.6,2.5-7,5-9.7c1-1,2-1.9,3.2-2.6c1.4-0.8,2.8-1.5,4.4-1.9c1.9-0.5,3.9-0.8,5.8-0.8c9,0,16.6,5,18.7,16.3
						c0.2,1,0.3,2,0.4,3c0.3-0.3,0.7-0.5,1.1-0.5C84,38.3,84.1,40.1,83.9,42.2z"/>
					<path class="st6" d="M46.5,56.6L46.5,56.6c-2.3,0.4-4.5-2.3-5.2-6.1c-0.5-2.8,0.1-5.5,1.4-6.8c0.1-0.1,0.3-0.3,0.4-0.4
						c0.3-0.3,0.7-0.4,1.1-0.5c0.4-0.1,0.9,0,1.3,0.1c0.4,0.1,0.8,0.4,1.1,0.6l0.1,0.1c1.4,1.4,2.4,3.3,2.6,5.3
						C50,52.7,48.7,56.1,46.5,56.6z"/>
					<path class="st6" d="M77.5,48.9c-0.6,3.8,0.6,7.2,2.9,7.7s4.6-2.3,5.2-6.1s-0.6-7.2-2.9-7.7S78.1,45.1,77.5,48.9z"/>
					<path class="st8" d="M84.5,41.1c0,0.2,0,0.5,0,0.7s0,0.3,0,0.4c0,0.5-0.1,0.8-0.1,0.8l-0.2,0.6l-0.9,2.8l-0.9,2.9l0,0L81.9,51
						v0.1l-1.1-2.4c-0.3-1.6-0.6-3.3-0.9-4.9c-0.1-0.6-0.2-1.2-0.3-1.7c-0.4-2.6-0.7-4.9-0.8-6.5c-0.1-1.3-0.2-2.1-0.2-2.1
						c-4.4,0.2-8.8,0.9-13,2.1l-0.5,0.1c-1.2,0.3-2.4,0.7-3.6,1.1c-1.4,0.5-2.8,1-4,1.4L53.2,40c-1.6,0.6-3,1.1-4.3,1.5
						c-0.7,0.2-1.4,0.4-2.2,0.5v0.2l-0.1,1.4l0,0l-0.5,5.2L45,51.1V51l-0.5-1.6l0,0l-0.9-2.9l-0.9-2.8L42.5,43c0,0,0-0.3-0.1-0.8
						c0-0.1,0-0.2,0-0.4s0-0.4,0-0.7s0-0.6,0-1v-0.2c0-0.1,0-0.1,0-0.2v-0.2c0,0,0-0.1,0-0.1c0-0.1,0-0.3,0-0.4s0-0.1,0-0.2
						s0-0.1,0-0.2s0-0.2,0-0.2s0-0.1,0-0.2s0-0.4,0-0.6s0-0.7,0.1-1.1c0-0.1,0-0.2,0-0.3s0-0.3,0-0.5l0,0c0-0.1,0-0.3,0-0.4
						c0-0.3,0.1-0.7,0.2-1.1l0,0l0.1-0.4c0-0.3,0.1-0.7,0.2-1c0-0.2,0.1-0.3,0.1-0.5c0.1-0.7,0.3-1.4,0.5-2.1
						c0.1-0.3,0.2-0.6,0.3-0.9l0.2-0.5l0.2-0.5c0.1-0.2,0.1-0.3,0.2-0.5l0.2-0.5c0.2-0.5,0.5-1,0.7-1.5l0.3-0.5
						c0.2-0.3,0.3-0.6,0.5-0.8l0.4-0.6l0.3-0.5c0.3-0.5,0.7-0.9,1.1-1.4c0.8-0.9,1.6-1.7,2.6-2.5l0.2-0.2c3-2.3,7.1-3.7,12.7-3.7
						c3.8-0.1,7.6,0.8,11,2.6c2.6,1.5,4.8,3.7,6.3,6.3c1.9,3.4,3.1,7.2,3.5,11.2l0,0c0.1,0.8,0.2,1.7,0.2,2.4c0,0.1,0,0.1,0,0.2
						c0,0.2,0,0.5,0,0.7c0,0.1,0,0.2,0,0.3s0,0.3,0,0.4C84.5,40.2,84.5,40.7,84.5,41.1z"/>
					<path class="st9" d="M84.5,41.1c0,0.2,0,0.5,0,0.7s0,0.3,0,0.4H42.4c0-0.1,0-0.2,0-0.4s0-0.4,0-0.7s0-0.6,0-1
						c0-0.1,0-0.2,0-0.2c0-0.1,0-0.1,0-0.2c0-0.1,0-0.3,0-0.4s0-0.3,0-0.4s0-0.2,0-0.2c0,0,0-0.1,0-0.1c0-0.1,0-0.2,0-0.2
						s0-0.1,0-0.2s0-0.4,0-0.6c0-0.6,0.1-1.2,0.2-1.8l0,0h41.7l0,0c0.1,0.8,0.2,1.7,0.2,2.4c0,0.1,0,0.1,0,0.2v0.7
						c0,0.1,0,0.2,0,0.3s0,0.3,0,0.4C84.5,40.2,84.5,40.7,84.5,41.1z"/>
					<path class="st7" d="M65.6,32.1c0,1.2-0.2,2.4-0.5,3.6c0,0,0,0.1,0,0.1C63,42.7,55.8,46.6,49,44.5c-0.8-0.2-1.5-0.5-2.2-0.9
						l-0.1,0c-0.4-0.2-0.8-0.4-1.1-0.7c-0.3-0.2-0.7-0.5-1-0.7c-0.6-0.5-1.2-1-1.7-1.6c-0.2-0.2-0.3-0.4-0.5-0.6l0,0
						c0-0.1,0-0.3,0-0.5c0,0,0-0.1,0-0.1c0-0.1,0-0.3,0-0.4s0-0.1,0-0.2l0,0c0,0,0-0.1,0-0.1c0-0.1,0-0.2,0-0.2s0-0.1,0-0.2
						s0-0.4,0-0.6s0-0.7,0.1-1.1c0-0.1,0-0.2,0-0.3s0-0.3,0-0.5s0-0.3,0-0.5c0-0.3,0.1-0.7,0.2-1.1l0,0l0.1-0.4c0-0.3,0.1-0.7,0.2-1
						c0-0.2,0.1-0.3,0.1-0.5c0.1-0.7,0.3-1.4,0.5-2.1c0.1-0.3,0.2-0.6,0.3-0.9l0.2-0.5l0.2-0.5c0.1-0.2,0.1-0.3,0.2-0.5l0.2-0.5
						c0.2-0.5,0.5-1,0.7-1.5l0.3-0.5c0.2-0.3,0.3-0.6,0.5-0.8l0,0c0.1-0.2,0.2-0.4,0.4-0.6l0.3-0.5c0.4-0.5,0.8-1,1.2-1.4
						c0.8-0.9,1.6-1.7,2.6-2.5l0.2-0.2l0,0c0.6-0.1,1.3-0.1,1.9-0.1C59.8,19.2,65.6,25,65.6,32.1z"/>
					<path class="st10" d="M62.7,32.1c0,1.2-0.2,2.5-0.7,3.6c-0.2,0.4-0.4,0.9-0.6,1.3c-2.7,4.9-8.8,6.7-13.7,4
						c-2.1-1.1-3.7-3-4.6-5.2c-0.2-0.5-0.3-1-0.4-1.5l0,0c-0.8-3.6,0.5-7.4,3.4-9.8l0,0c1.8-1.5,4.1-2.4,6.5-2.4h0.6
						C58.5,22.4,62.7,26.8,62.7,32.1z"/>
					<circle class="st11" cx="52.6" cy="32.1" r="7.9"/>
					<circle class="st12" cx="52.6" cy="32.1" r="2.2"/>
				</g>
			</g>
			<circle class="st13" cx="63.5" cy="63.5" r="62.5"/>
		</g>
	</g>
</g>
</svg>
